<svg xmlns="http://www.w3.org/2000/svg" width="334" height="255"><g fill="none" fill-rule="evenodd"><path fill="#000" d="M0 0h334v255H0z"/><path fill="#FFF" fill-rule="nonzero" d="M40.832 78c-2.493 0-4.394-.665-5.703-1.995-1.309-1.33-1.964-3.24-1.964-5.734V54.25H26.06v-7.417h7.105v-9.287h8.976v9.287h8.976v7.418h-8.976v14.336c0 1.205.582 1.808 1.746 1.808h7.23V78H40.832Zm15.958 0V34.368h8.975V51.82c.79-1.663 1.995-3.065 3.615-4.208C71 46.47 72.892 45.9 75.053 45.9c7.313 0 10.97 4.446 10.97 13.34V78h-8.976V60.235c0-2.202-.467-3.885-1.402-5.048-.935-1.164-2.275-1.746-4.02-1.746-1.87 0-3.315.686-4.333 2.057-1.018 1.371-1.527 3.22-1.527 5.548V78H56.79Zm50.987.997c-4.862 0-8.716-1.537-11.563-4.612-2.846-3.075-4.27-7.044-4.27-11.906 0-4.82 1.486-8.799 4.457-11.936 2.971-3.138 6.784-4.706 11.438-4.706 4.488 0 8.134 1.433 10.94 4.3 2.804 2.868 4.207 6.566 4.207 11.096 0 1.33-.104 2.41-.312 3.241h-22.19c.041 2.12.717 3.906 2.026 5.36 1.309 1.455 3.064 2.182 5.267 2.182 1.745 0 3.179-.467 4.3-1.402 1.123-.935 1.85-2.026 2.182-3.273l8.353 1.559c-.748 2.908-2.38 5.319-4.893 7.23-2.514 1.912-5.828 2.867-9.942 2.867Zm-7.168-19.884h13.837c.042-1.911-.592-3.49-1.9-4.737-1.31-1.246-2.92-1.87-4.832-1.87-1.911 0-3.552.634-4.924 1.901-1.371 1.268-2.098 2.836-2.181 4.706ZM34.163 153l-8.54-31.166h9.038l4.738 21.255 5.859-21.255h8.352l5.797 21.13 4.737-21.13h9.039L64.643 153h-9.287l-5.984-20.507L43.388 153zm57.657.997c-4.862 0-8.716-1.537-11.563-4.612-2.846-3.075-4.27-7.044-4.27-11.906 0-4.82 1.486-8.799 4.457-11.936 2.971-3.138 6.784-4.706 11.438-4.706 4.488 0 8.134 1.433 10.94 4.3 2.804 2.868 4.207 6.566 4.207 11.096 0 1.33-.104 2.41-.312 3.241h-22.19c.042 2.12.717 3.906 2.026 5.36 1.309 1.455 3.064 2.182 5.267 2.182 1.745 0 3.179-.467 4.3-1.402 1.123-.935 1.85-2.026 2.182-3.273l8.353 1.559c-.748 2.908-2.38 5.319-4.893 7.23-2.514 1.912-5.828 2.867-9.942 2.867Zm-7.168-19.884h13.837c.042-1.911-.592-3.49-1.9-4.737-1.31-1.246-2.92-1.87-4.832-1.87-1.911 0-3.552.634-4.924 1.901-1.371 1.268-2.098 2.836-2.181 4.706Zm38.084 19.884c-3.24 0-5.838-.904-7.791-2.711-1.953-1.808-2.93-4.208-2.93-7.2 0-2.95 1.08-5.298 3.242-7.043 2.16-1.745 4.903-2.618 8.227-2.618 3.491 0 6.524 1.018 9.1 3.054v-3.864c0-1.62-.435-2.93-1.308-3.927-.873-.997-2.202-1.496-3.99-1.496-2.991 0-4.903 1.35-5.734 4.051l-9.225-1.37c.582-2.619 2.182-4.946 4.8-6.982 2.618-2.036 6.046-3.054 10.284-3.054 4.53 0 8.02 1.06 10.472 3.179 2.452 2.119 3.678 5.049 3.678 8.788V153h-8.976l.187-3.865c-2.036 3.242-5.381 4.862-10.036 4.862Zm-.187-13.214c-.914.79-1.37 1.704-1.37 2.743 0 1.038.467 1.932 1.402 2.68.935.748 2.337 1.122 4.207 1.122 1.662 0 3.065-.426 4.207-1.278 1.143-.852 1.715-1.839 1.715-2.96 0-.998-.561-1.83-1.683-2.494-1.122-.665-2.535-.997-4.239-.997-1.87 0-3.283.394-4.239 1.184ZM148.729 153v-31.166h8.976l-.686 8.103h.312c.54-2.66 1.548-4.758 3.023-6.295 1.475-1.538 3.272-2.307 5.391-2.307 1.289 0 2.39.083 3.304.25v8.85c-1.247-.124-2.14-.186-2.68-.186-1.164 0-2.192.135-3.086.405-.893.27-1.797.769-2.711 1.496-.914.727-1.62 1.88-2.12 3.46-.498 1.578-.747 3.532-.747 5.859V153h-8.976Zm34.095.997c-3.24 0-5.838-.904-7.791-2.711-1.953-1.808-2.93-4.208-2.93-7.2 0-2.95 1.08-5.298 3.242-7.043 2.16-1.745 4.903-2.618 8.227-2.618 3.491 0 6.524 1.018 9.1 3.054v-3.864c0-1.62-.435-2.93-1.308-3.927-.873-.997-2.203-1.496-3.99-1.496-2.991 0-4.903 1.35-5.734 4.051l-9.225-1.37c.582-2.619 2.182-4.946 4.8-6.982 2.617-2.036 6.046-3.054 10.284-3.054 4.53 0 8.02 1.06 10.472 3.179 2.452 2.119 3.678 5.049 3.678 8.788V153h-8.976l.187-3.865c-2.036 3.242-5.381 4.862-10.036 4.862Zm-.187-13.214c-.914.79-1.37 1.704-1.37 2.743 0 1.038.467 1.932 1.402 2.68.935.748 2.337 1.122 4.207 1.122 1.662 0 3.065-.426 4.207-1.278 1.143-.852 1.714-1.839 1.714-2.96 0-.998-.56-1.83-1.682-2.494-1.122-.665-2.535-.997-4.239-.997-1.87 0-3.283.394-4.239 1.184Zm44.693 13.214c-2.37 0-4.416-.623-6.14-1.87-1.725-1.246-2.899-2.534-3.522-3.864l.125 4.737h-8.976v-43.632h8.976v17.203c.54-1.288 1.662-2.555 3.366-3.802 1.703-1.247 3.76-1.87 6.17-1.87 4.197 0 7.646 1.62 10.347 4.862 2.702 3.241 4.052 7.168 4.052 11.78 0 4.572-1.35 8.457-4.052 11.657-2.7 3.2-6.15 4.8-10.347 4.8Zm-9.787-16.455c0 2.7.727 4.81 2.182 6.326 1.454 1.517 3.22 2.275 5.298 2.275s3.844-.758 5.298-2.275c1.455-1.516 2.182-3.625 2.182-6.326 0-2.743-.727-4.893-2.182-6.452-1.454-1.558-3.22-2.337-5.298-2.337s-3.844.779-5.298 2.337c-1.455 1.559-2.182 3.71-2.182 6.452ZM248.024 153v-43.632h8.975V153zm31.103.997c-4.862 0-8.716-1.537-11.562-4.612-2.847-3.075-4.27-7.044-4.27-11.906 0-4.82 1.485-8.799 4.457-11.936 2.97-3.138 6.783-4.706 11.438-4.706 4.487 0 8.134 1.433 10.939 4.3 2.805 2.868 4.207 6.566 4.207 11.096 0 1.33-.104 2.41-.311 3.241h-22.19c.04 2.12.716 3.906 2.025 5.36 1.31 1.455 3.065 2.182 5.267 2.182 1.745 0 3.18-.467 4.301-1.402 1.122-.935 1.85-2.026 2.182-3.273l8.352 1.559c-.748 2.908-2.379 5.319-4.893 7.23-2.514 1.912-5.828 2.867-9.942 2.867Zm-7.168-19.884h13.838c.041-1.911-.592-3.49-1.901-4.737-1.31-1.246-2.92-1.87-4.831-1.87-1.912 0-3.553.634-4.924 1.901-1.372 1.268-2.099 2.836-2.182 4.706ZM26.802 228v-31.166h8.976V228h-8.976Zm-1.122-39.58c0-1.538.51-2.764 1.527-3.678 1.018-.915 2.38-1.372 4.083-1.372 1.662 0 3.002.457 4.02 1.372 1.019.914 1.528 2.14 1.528 3.677 0 1.496-.51 2.722-1.527 3.678-1.019.956-2.359 1.433-4.02 1.433-1.663 0-3.014-.477-4.052-1.433-1.04-.956-1.559-2.182-1.559-3.678ZM43.32 228v-31.166h8.976l-.125 5.236c.79-1.704 2.016-3.158 3.678-4.363 1.662-1.205 3.574-1.808 5.734-1.808 7.314 0 10.97 4.446 10.97 13.34V228h-8.975v-17.765c0-2.202-.467-3.885-1.402-5.048-.935-1.164-2.276-1.746-4.02-1.746-1.87 0-3.315.686-4.333 2.057-1.018 1.371-1.527 3.22-1.527 5.548V228H43.32Zm47.996 0c-2.494 0-4.395-.665-5.704-1.995-1.309-1.33-1.963-3.24-1.963-5.734v-16.02h-7.106v-7.417h7.106v-9.287h8.976v9.287h8.976v7.418h-8.976v14.336c0 1.205.582 1.808 1.745 1.808h7.23V228H91.317Zm30.106.997c-4.862 0-8.716-1.537-11.562-4.612-2.847-3.075-4.27-7.044-4.27-11.906 0-4.82 1.485-8.799 4.457-11.936 2.97-3.138 6.783-4.706 11.437-4.706 4.488 0 8.135 1.433 10.94 4.3 2.805 2.868 4.207 6.566 4.207 11.096 0 1.33-.104 2.41-.312 3.241h-22.19c.042 2.12.717 3.906 2.026 5.36 1.309 1.455 3.065 2.182 5.267 2.182 1.745 0 3.179-.467 4.301-1.402 1.122-.935 1.85-2.026 2.182-3.273l8.352 1.559c-.748 2.908-2.379 5.319-4.893 7.23-2.514 1.912-5.828 2.867-9.942 2.867Zm-7.168-19.884h13.838c.041-1.911-.593-3.49-1.902-4.737-1.308-1.246-2.919-1.87-4.83-1.87-1.912 0-3.553.634-4.924 1.901-1.372 1.268-2.099 2.836-2.182 4.706ZM142.864 228v-31.166h8.976l-.686 8.103h.312c.54-2.66 1.548-4.758 3.023-6.295 1.475-1.538 3.273-2.307 5.392-2.307 1.288 0 2.39.083 3.303.25v8.85c-1.246-.124-2.14-.186-2.68-.186-1.163 0-2.192.135-3.085.405-.894.27-1.797.769-2.712 1.496-.914.727-1.62 1.88-2.119 3.46-.499 1.578-.748 3.532-.748 5.859V228h-8.976Zm25.432 0v-31.166h8.975l-.124 5.236c.79-1.704 2.015-3.158 3.677-4.363 1.663-1.205 3.574-1.808 5.735-1.808 7.314 0 10.97 4.446 10.97 13.34V228h-8.975v-17.765c0-2.202-.468-3.885-1.403-5.048-.935-1.164-2.275-1.746-4.02-1.746-1.87 0-3.314.686-4.332 2.057-1.018 1.371-1.528 3.22-1.528 5.548V228h-8.975Zm50.987.997c-4.862 0-8.716-1.537-11.562-4.612-2.847-3.075-4.27-7.044-4.27-11.906 0-4.82 1.485-8.799 4.457-11.936 2.97-3.138 6.783-4.706 11.438-4.706 4.487 0 8.134 1.433 10.939 4.3 2.805 2.868 4.207 6.566 4.207 11.096 0 1.33-.104 2.41-.311 3.241h-22.19c.04 2.12.716 3.906 2.025 5.36 1.31 1.455 3.065 2.182 5.267 2.182 1.745 0 3.18-.467 4.301-1.402 1.122-.935 1.85-2.026 2.182-3.273l8.352 1.559c-.748 2.908-2.379 5.319-4.893 7.23-2.514 1.912-5.828 2.867-9.942 2.867Zm-7.168-19.884h13.838c.041-1.911-.592-3.49-1.901-4.737-1.31-1.246-2.92-1.87-4.831-1.87-1.912 0-3.553.634-4.924 1.901-1.372 1.268-2.099 2.836-2.182 4.706ZM252.32 228c-2.494 0-4.395-.665-5.704-1.995-1.31-1.33-1.964-3.24-1.964-5.734v-16.02h-7.106v-7.417h7.106v-9.287h8.976v9.287h8.976v7.418h-8.976v14.336c0 1.205.582 1.808 1.745 1.808h7.23V228H252.32Zm24.87-.748c-1.04.914-2.39 1.371-4.052 1.371-1.662 0-3.002-.467-4.02-1.402-1.019-.935-1.528-2.15-1.528-3.647 0-1.537.5-2.773 1.496-3.708.998-.935 2.348-1.403 4.052-1.403 1.704 0 3.065.468 4.083 1.403 1.018.935 1.527 2.17 1.527 3.708 0 1.496-.52 2.722-1.558 3.678Z"/></g></svg>